solid OpenSCAD_Model
  facet normal 0.891006 0.453991 0
    outer loop
      vertex 3.3287 1.08156 0.799999
      vertex 2.83156 2.05725 0
      vertex 2.83156 2.05725 0.799999
    endloop
  endfacet
  facet normal 0.891006 0.453991 0
    outer loop
      vertex 2.83156 2.05725 0
      vertex 3.3287 1.08156 0.799999
      vertex 3.3287 1.08156 0
    endloop
  endfacet
  facet normal 0.987689 0.156432 0
    outer loop
      vertex 3.5 0 0.799999
      vertex 3.3287 1.08156 0
      vertex 3.3287 1.08156 0.799999
    endloop
  endfacet
  facet normal 0.987689 0.156432 0
    outer loop
      vertex 3.3287 1.08156 0
      vertex 3.5 0 0.799999
      vertex 3.5 0 0
    endloop
  endfacet
  facet normal 0.707107 0.707107 0
    outer loop
      vertex 2.83156 2.05725 0.799999
      vertex 2.05725 2.83156 0
      vertex 2.05725 2.83156 0.799999
    endloop
  endfacet
  facet normal 0.707107 0.707107 0
    outer loop
      vertex 2.05725 2.83156 0
      vertex 2.83156 2.05725 0.799999
      vertex 2.83156 2.05725 0
    endloop
  endfacet
  facet normal 0.156432 0.987689 -0
    outer loop
      vertex 1.08156 3.3287 0
      vertex 0 3.5 0.799999
      vertex 1.08156 3.3287 0.799999
    endloop
  endfacet
  facet normal 0.156432 0.987689 0
    outer loop
      vertex 0 3.5 0.799999
      vertex 1.08156 3.3287 0
      vertex 0 3.5 0
    endloop
  endfacet
  facet normal 0 0 -1
    outer loop
      vertex 2 0 0
      vertex 3.5 0 0
      vertex 3.3287 -1.08156 0
    endloop
  endfacet
  facet normal 0 0 -1
    outer loop
      vertex 1.90211 -0.618033 0
      vertex 3.3287 -1.08156 0
      vertex 2.83156 -2.05725 0
    endloop
  endfacet
  facet normal 0 0 -1
    outer loop
      vertex 3.5 0 0
      vertex 2 0 0
      vertex 3.3287 1.08156 0
    endloop
  endfacet
  facet normal 0 0 -1
    outer loop
      vertex 1.61803 -1.17557 0
      vertex 2.83156 -2.05725 0
      vertex 2.05725 -2.83156 0
    endloop
  endfacet
  facet normal 0 0 -1
    outer loop
      vertex 1.90211 0.618033 0
      vertex 3.3287 1.08156 0
      vertex 2 0 0
    endloop
  endfacet
  facet normal -0 0 -1
    outer loop
      vertex 3.3287 1.08156 0
      vertex 1.90211 0.618033 0
      vertex 2.83156 2.05725 0
    endloop
  endfacet
  facet normal 0 0 -1
    outer loop
      vertex 3.3287 -1.08156 0
      vertex 1.90211 -0.618033 0
      vertex 2 0 0
    endloop
  endfacet
  facet normal 0 0 -1
    outer loop
      vertex 2.83156 -2.05725 0
      vertex 1.61803 -1.17557 0
      vertex 1.90211 -0.618033 0
    endloop
  endfacet
  facet normal 0 0 -1
    outer loop
      vertex 2.05725 -2.83156 0
      vertex 1.17557 -1.61803 0
      vertex 1.61803 -1.17557 0
    endloop
  endfacet
  facet normal 0 0 -1
    outer loop
      vertex 1.08156 -3.3287 0
      vertex 1.17557 -1.61803 0
      vertex 2.05725 -2.83156 0
    endloop
  endfacet
  facet normal 0 0 -1
    outer loop
      vertex 1.08156 -3.3287 0
      vertex 0.618033 -1.90211 0
      vertex 1.17557 -1.61803 0
    endloop
  endfacet
  facet normal 0 0 -1
    outer loop
      vertex 0 -3.5 0
      vertex 0.618033 -1.90211 0
      vertex 1.08156 -3.3287 0
    endloop
  endfacet
  facet normal 0 0 -1
    outer loop
      vertex 0 -3.5 0
      vertex 0 -2 0
      vertex 0.618033 -1.90211 0
    endloop
  endfacet
  facet normal 0 0 -1
    outer loop
      vertex 0 -3.5 0
      vertex -0.618033 -1.90211 0
      vertex 0 -2 0
    endloop
  endfacet
  facet normal 0 0 -1
    outer loop
      vertex -1.08156 -3.3287 0
      vertex -0.618033 -1.90211 0
      vertex 0 -3.5 0
    endloop
  endfacet
  facet normal 0 0 -1
    outer loop
      vertex -1.08156 -3.3287 0
      vertex -1.17557 -1.61803 0
      vertex -0.618033 -1.90211 0
    endloop
  endfacet
  facet normal 0 0 -1
    outer loop
      vertex -2.05725 -2.83156 0
      vertex -1.17557 -1.61803 0
      vertex -1.08156 -3.3287 0
    endloop
  endfacet
  facet normal -0 0 -1
    outer loop
      vertex -1.17557 -1.61803 0
      vertex -2.05725 -2.83156 0
      vertex -1.61803 -1.17557 0
    endloop
  endfacet
  facet normal -0 0 -1
    outer loop
      vertex -1.61803 -1.17557 0
      vertex -2.83156 -2.05725 0
      vertex -1.90211 -0.618033 0
    endloop
  endfacet
  facet normal 0 0 -1
    outer loop
      vertex -2.83156 -2.05725 0
      vertex -1.61803 -1.17557 0
      vertex -2.05725 -2.83156 0
    endloop
  endfacet
  facet normal 0 0 -1
    outer loop
      vertex 1.61803 1.17557 0
      vertex 2.83156 2.05725 0
      vertex 1.90211 0.618033 0
    endloop
  endfacet
  facet normal -0 0 -1
    outer loop
      vertex 2.83156 2.05725 0
      vertex 1.61803 1.17557 0
      vertex 2.05725 2.83156 0
    endloop
  endfacet
  facet normal 0 0 -1
    outer loop
      vertex 1.17557 1.61803 0
      vertex 2.05725 2.83156 0
      vertex 1.61803 1.17557 0
    endloop
  endfacet
  facet normal 0 0 -1
    outer loop
      vertex 1.17557 1.61803 0
      vertex 1.08156 3.3287 0
      vertex 2.05725 2.83156 0
    endloop
  endfacet
  facet normal 0 0 -1
    outer loop
      vertex 0.618033 1.90211 0
      vertex 1.08156 3.3287 0
      vertex 1.17557 1.61803 0
    endloop
  endfacet
  facet normal 0 0 -1
    outer loop
      vertex 0 2 0
      vertex 1.08156 3.3287 0
      vertex 0.618033 1.90211 0
    endloop
  endfacet
  facet normal 0 0 -1
    outer loop
      vertex 0 2 0
      vertex 0 3.5 0
      vertex 1.08156 3.3287 0
    endloop
  endfacet
  facet normal 0 0 -1
    outer loop
      vertex -0.618033 1.90211 0
      vertex 0 3.5 0
      vertex 0 2 0
    endloop
  endfacet
  facet normal 0 0 -1
    outer loop
      vertex -0.618033 1.90211 0
      vertex -1.08156 3.3287 0
      vertex 0 3.5 0
    endloop
  endfacet
  facet normal 0 0 -1
    outer loop
      vertex -1.17557 1.61803 0
      vertex -1.08156 3.3287 0
      vertex -0.618033 1.90211 0
    endloop
  endfacet
  facet normal 0 0 -1
    outer loop
      vertex -2.05725 2.83156 0
      vertex -1.17557 1.61803 0
      vertex -1.61803 1.17557 0
    endloop
  endfacet
  facet normal 0 0 -1
    outer loop
      vertex -2.83156 2.05725 0
      vertex -1.61803 1.17557 0
      vertex -1.90211 0.618033 0
    endloop
  endfacet
  facet normal 0 0 -1
    outer loop
      vertex -1.17557 1.61803 0
      vertex -2.05725 2.83156 0
      vertex -1.08156 3.3287 0
    endloop
  endfacet
  facet normal 0 0 -1
    outer loop
      vertex -3.3287 1.08156 0
      vertex -1.90211 0.618033 0
      vertex -2 0 0
    endloop
  endfacet
  facet normal 0 0 -1
    outer loop
      vertex -3.3287 -1.08156 0
      vertex -1.90211 -0.618033 0
      vertex -2.83156 -2.05725 0
    endloop
  endfacet
  facet normal -0 0 -1
    outer loop
      vertex -1.90211 -0.618033 0
      vertex -3.3287 -1.08156 0
      vertex -2 0 0
    endloop
  endfacet
  facet normal 0 0 -1
    outer loop
      vertex -1.61803 1.17557 0
      vertex -2.83156 2.05725 0
      vertex -2.05725 2.83156 0
    endloop
  endfacet
  facet normal 0 0 -1
    outer loop
      vertex -3.5 0 0
      vertex -2 0 0
      vertex -3.3287 -1.08156 0
    endloop
  endfacet
  facet normal 0 0 -1
    outer loop
      vertex -1.90211 0.618033 0
      vertex -3.3287 1.08156 0
      vertex -2.83156 2.05725 0
    endloop
  endfacet
  facet normal 0 0 -1
    outer loop
      vertex -2 0 0
      vertex -3.5 0 0
      vertex -3.3287 1.08156 0
    endloop
  endfacet
  facet normal -0.987689 0.156432 0
    outer loop
      vertex -3.5 0 0
      vertex -3.3287 1.08156 0.799999
      vertex -3.3287 1.08156 0
    endloop
  endfacet
  facet normal -0.987689 0.156432 0
    outer loop
      vertex -3.3287 1.08156 0.799999
      vertex -3.5 0 0
      vertex -3.5 0 0.799999
    endloop
  endfacet
  facet normal 0.453991 0.891006 -0
    outer loop
      vertex 2.05725 2.83156 0
      vertex 1.08156 3.3287 0.799999
      vertex 2.05725 2.83156 0.799999
    endloop
  endfacet
  facet normal 0.453991 0.891006 0
    outer loop
      vertex 1.08156 3.3287 0.799999
      vertex 2.05725 2.83156 0
      vertex 1.08156 3.3287 0
    endloop
  endfacet
  facet normal -0.453991 0.891006 0
    outer loop
      vertex -1.08156 3.3287 0
      vertex -2.05725 2.83156 0.799999
      vertex -1.08156 3.3287 0.799999
    endloop
  endfacet
  facet normal -0.453991 0.891006 0
    outer loop
      vertex -2.05725 2.83156 0.799999
      vertex -1.08156 3.3287 0
      vertex -2.05725 2.83156 0
    endloop
  endfacet
  facet normal -0.156432 -0.987689 0
    outer loop
      vertex -1.08156 -3.3287 0
      vertex 0 -3.5 0.799999
      vertex -1.08156 -3.3287 0.799999
    endloop
  endfacet
  facet normal -0.156432 -0.987689 -0
    outer loop
      vertex 0 -3.5 0.799999
      vertex -1.08156 -3.3287 0
      vertex 0 -3.5 0
    endloop
  endfacet
  facet normal 0.707107 -0.707107 0
    outer loop
      vertex 2.05725 -2.83156 0.799999
      vertex 2.83156 -2.05725 0
      vertex 2.83156 -2.05725 0.799999
    endloop
  endfacet
  facet normal 0.707107 -0.707107 0
    outer loop
      vertex 2.83156 -2.05725 0
      vertex 2.05725 -2.83156 0.799999
      vertex 2.05725 -2.83156 0
    endloop
  endfacet
  facet normal -0.891006 -0.453991 0
    outer loop
      vertex -2.83156 -2.05725 0
      vertex -3.3287 -1.08156 0.799999
      vertex -3.3287 -1.08156 0
    endloop
  endfacet
  facet normal -0.891006 -0.453991 0
    outer loop
      vertex -3.3287 -1.08156 0.799999
      vertex -2.83156 -2.05725 0
      vertex -2.83156 -2.05725 0.799999
    endloop
  endfacet
  facet normal -0.156432 0.987689 0
    outer loop
      vertex 0 3.5 0
      vertex -1.08156 3.3287 0.799999
      vertex 0 3.5 0.799999
    endloop
  endfacet
  facet normal -0.156432 0.987689 0
    outer loop
      vertex -1.08156 3.3287 0.799999
      vertex 0 3.5 0
      vertex -1.08156 3.3287 0
    endloop
  endfacet
  facet normal 0.453991 -0.891006 0
    outer loop
      vertex 1.08156 -3.3287 0
      vertex 2.05725 -2.83156 0.799999
      vertex 1.08156 -3.3287 0.799999
    endloop
  endfacet
  facet normal 0.453991 -0.891006 0
    outer loop
      vertex 2.05725 -2.83156 0.799999
      vertex 1.08156 -3.3287 0
      vertex 2.05725 -2.83156 0
    endloop
  endfacet
  facet normal 0.156432 -0.987689 0
    outer loop
      vertex 0 -3.5 0
      vertex 1.08156 -3.3287 0.799999
      vertex 0 -3.5 0.799999
    endloop
  endfacet
  facet normal 0.156432 -0.987689 0
    outer loop
      vertex 1.08156 -3.3287 0.799999
      vertex 0 -3.5 0
      vertex 1.08156 -3.3287 0
    endloop
  endfacet
  facet normal -0.987689 -0.156432 0
    outer loop
      vertex -3.3287 -1.08156 0
      vertex -3.5 0 0.799999
      vertex -3.5 0 0
    endloop
  endfacet
  facet normal -0.987689 -0.156432 0
    outer loop
      vertex -3.5 0 0.799999
      vertex -3.3287 -1.08156 0
      vertex -3.3287 -1.08156 0.799999
    endloop
  endfacet
  facet normal -0.891006 0.453991 0
    outer loop
      vertex -3.3287 1.08156 0
      vertex -2.83156 2.05725 0.799999
      vertex -2.83156 2.05725 0
    endloop
  endfacet
  facet normal -0.891006 0.453991 0
    outer loop
      vertex -2.83156 2.05725 0.799999
      vertex -3.3287 1.08156 0
      vertex -3.3287 1.08156 0.799999
    endloop
  endfacet
  facet normal -0.707107 0.707107 0
    outer loop
      vertex -2.83156 2.05725 0
      vertex -2.05725 2.83156 0.799999
      vertex -2.05725 2.83156 0
    endloop
  endfacet
  facet normal -0.707107 0.707107 0
    outer loop
      vertex -2.05725 2.83156 0.799999
      vertex -2.83156 2.05725 0
      vertex -2.83156 2.05725 0.799999
    endloop
  endfacet
  facet normal 0 0 1
    outer loop
      vertex 2 0 0.799999
      vertex 3.5 0 0.799999
      vertex 3.3287 1.08156 0.799999
    endloop
  endfacet
  facet normal 0 0 1
    outer loop
      vertex 1.90211 0.618033 0.799999
      vertex 3.3287 1.08156 0.799999
      vertex 2.83156 2.05725 0.799999
    endloop
  endfacet
  facet normal 0 0 1
    outer loop
      vertex 3.5 0 0.799999
      vertex 2 0 0.799999
      vertex 3.3287 -1.08156 0.799999
    endloop
  endfacet
  facet normal 0 0 1
    outer loop
      vertex 1.61803 1.17557 0.799999
      vertex 2.83156 2.05725 0.799999
      vertex 2.05725 2.83156 0.799999
    endloop
  endfacet
  facet normal -0 0 1
    outer loop
      vertex 1.90211 -0.618033 0.799999
      vertex 3.3287 -1.08156 0.799999
      vertex 2 0 0.799999
    endloop
  endfacet
  facet normal 0 0 1
    outer loop
      vertex 3.3287 -1.08156 0.799999
      vertex 1.90211 -0.618033 0.799999
      vertex 2.83156 -2.05725 0.799999
    endloop
  endfacet
  facet normal 0 0 1
    outer loop
      vertex 3.3287 1.08156 0.799999
      vertex 1.90211 0.618033 0.799999
      vertex 2 0 0.799999
    endloop
  endfacet
  facet normal 0 0 1
    outer loop
      vertex 2.83156 2.05725 0.799999
      vertex 1.61803 1.17557 0.799999
      vertex 1.90211 0.618033 0.799999
    endloop
  endfacet
  facet normal 0 0 1
    outer loop
      vertex 2.05725 2.83156 0.799999
      vertex 1.17557 1.61803 0.799999
      vertex 1.61803 1.17557 0.799999
    endloop
  endfacet
  facet normal 0 0 1
    outer loop
      vertex 1.08156 3.3287 0.799999
      vertex 1.17557 1.61803 0.799999
      vertex 2.05725 2.83156 0.799999
    endloop
  endfacet
  facet normal 0 0 1
    outer loop
      vertex 1.08156 3.3287 0.799999
      vertex 0.618033 1.90211 0.799999
      vertex 1.17557 1.61803 0.799999
    endloop
  endfacet
  facet normal 0 0 1
    outer loop
      vertex 0 3.5 0.799999
      vertex 0.618033 1.90211 0.799999
      vertex 1.08156 3.3287 0.799999
    endloop
  endfacet
  facet normal 0 0 1
    outer loop
      vertex 0 3.5 0.799999
      vertex 0 2 0.799999
      vertex 0.618033 1.90211 0.799999
    endloop
  endfacet
  facet normal 0 0 1
    outer loop
      vertex 0 3.5 0.799999
      vertex -0.618033 1.90211 0.799999
      vertex 0 2 0.799999
    endloop
  endfacet
  facet normal -0 0 1
    outer loop
      vertex -1.08156 3.3287 0.799999
      vertex -0.618033 1.90211 0.799999
      vertex 0 3.5 0.799999
    endloop
  endfacet
  facet normal 0 0 1
    outer loop
      vertex -1.08156 3.3287 0.799999
      vertex -1.17557 1.61803 0.799999
      vertex -0.618033 1.90211 0.799999
    endloop
  endfacet
  facet normal -0 0 1
    outer loop
      vertex -2.05725 2.83156 0.799999
      vertex -1.17557 1.61803 0.799999
      vertex -1.08156 3.3287 0.799999
    endloop
  endfacet
  facet normal 0 0 1
    outer loop
      vertex -1.17557 1.61803 0.799999
      vertex -2.05725 2.83156 0.799999
      vertex -1.61803 1.17557 0.799999
    endloop
  endfacet
  facet normal 0 0 1
    outer loop
      vertex -1.61803 1.17557 0.799999
      vertex -2.83156 2.05725 0.799999
      vertex -1.90211 0.618033 0.799999
    endloop
  endfacet
  facet normal -0 0 1
    outer loop
      vertex -2.83156 2.05725 0.799999
      vertex -1.61803 1.17557 0.799999
      vertex -2.05725 2.83156 0.799999
    endloop
  endfacet
  facet normal -0 0 1
    outer loop
      vertex 1.61803 -1.17557 0.799999
      vertex 2.83156 -2.05725 0.799999
      vertex 1.90211 -0.618033 0.799999
    endloop
  endfacet
  facet normal 0 0 1
    outer loop
      vertex 2.83156 -2.05725 0.799999
      vertex 1.61803 -1.17557 0.799999
      vertex 2.05725 -2.83156 0.799999
    endloop
  endfacet
  facet normal -0 0 1
    outer loop
      vertex 1.17557 -1.61803 0.799999
      vertex 2.05725 -2.83156 0.799999
      vertex 1.61803 -1.17557 0.799999
    endloop
  endfacet
  facet normal 0 0 1
    outer loop
      vertex 1.17557 -1.61803 0.799999
      vertex 1.08156 -3.3287 0.799999
      vertex 2.05725 -2.83156 0.799999
    endloop
  endfacet
  facet normal -0 0 1
    outer loop
      vertex 0.618033 -1.90211 0.799999
      vertex 1.08156 -3.3287 0.799999
      vertex 1.17557 -1.61803 0.799999
    endloop
  endfacet
  facet normal -0 0 1
    outer loop
      vertex 0 -2 0.799999
      vertex 1.08156 -3.3287 0.799999
      vertex 0.618033 -1.90211 0.799999
    endloop
  endfacet
  facet normal 0 0 1
    outer loop
      vertex 0 -2 0.799999
      vertex 0 -3.5 0.799999
      vertex 1.08156 -3.3287 0.799999
    endloop
  endfacet
  facet normal 0 0 1
    outer loop
      vertex -0.618033 -1.90211 0.799999
      vertex 0 -3.5 0.799999
      vertex 0 -2 0.799999
    endloop
  endfacet
  facet normal 0 0 1
    outer loop
      vertex -0.618033 -1.90211 0.799999
      vertex -1.08156 -3.3287 0.799999
      vertex 0 -3.5 0.799999
    endloop
  endfacet
  facet normal 0 0 1
    outer loop
      vertex -1.17557 -1.61803 0.799999
      vertex -1.08156 -3.3287 0.799999
      vertex -0.618033 -1.90211 0.799999
    endloop
  endfacet
  facet normal 0 0 1
    outer loop
      vertex -2.05725 -2.83156 0.799999
      vertex -1.17557 -1.61803 0.799999
      vertex -1.61803 -1.17557 0.799999
    endloop
  endfacet
  facet normal 0 0 1
    outer loop
      vertex -2.83156 -2.05725 0.799999
      vertex -1.61803 -1.17557 0.799999
      vertex -1.90211 -0.618033 0.799999
    endloop
  endfacet
  facet normal 0 0 1
    outer loop
      vertex -1.17557 -1.61803 0.799999
      vertex -2.05725 -2.83156 0.799999
      vertex -1.08156 -3.3287 0.799999
    endloop
  endfacet
  facet normal 0 0 1
    outer loop
      vertex -3.3287 -1.08156 0.799999
      vertex -1.90211 -0.618033 0.799999
      vertex -2 0 0.799999
    endloop
  endfacet
  facet normal -0 0 1
    outer loop
      vertex -3.3287 1.08156 0.799999
      vertex -1.90211 0.618033 0.799999
      vertex -2.83156 2.05725 0.799999
    endloop
  endfacet
  facet normal 0 0 1
    outer loop
      vertex -1.90211 0.618033 0.799999
      vertex -3.3287 1.08156 0.799999
      vertex -2 0 0.799999
    endloop
  endfacet
  facet normal 0 0 1
    outer loop
      vertex -1.61803 -1.17557 0.799999
      vertex -2.83156 -2.05725 0.799999
      vertex -2.05725 -2.83156 0.799999
    endloop
  endfacet
  facet normal 0 0 1
    outer loop
      vertex -3.5 0 0.799999
      vertex -2 0 0.799999
      vertex -3.3287 1.08156 0.799999
    endloop
  endfacet
  facet normal 0 0 1
    outer loop
      vertex -1.90211 -0.618033 0.799999
      vertex -3.3287 -1.08156 0.799999
      vertex -2.83156 -2.05725 0.799999
    endloop
  endfacet
  facet normal 0 0 1
    outer loop
      vertex -2 0 0.799999
      vertex -3.5 0 0.799999
      vertex -3.3287 -1.08156 0.799999
    endloop
  endfacet
  facet normal 0.891006 -0.453991 0
    outer loop
      vertex 2.83156 -2.05725 0.799999
      vertex 3.3287 -1.08156 0
      vertex 3.3287 -1.08156 0.799999
    endloop
  endfacet
  facet normal 0.891006 -0.453991 0
    outer loop
      vertex 3.3287 -1.08156 0
      vertex 2.83156 -2.05725 0.799999
      vertex 2.83156 -2.05725 0
    endloop
  endfacet
  facet normal 0.987689 -0.156432 0
    outer loop
      vertex 3.3287 -1.08156 0.799999
      vertex 3.5 0 0
      vertex 3.5 0 0.799999
    endloop
  endfacet
  facet normal 0.987689 -0.156432 0
    outer loop
      vertex 3.5 0 0
      vertex 3.3287 -1.08156 0.799999
      vertex 3.3287 -1.08156 0
    endloop
  endfacet
  facet normal -0.707107 -0.707107 0
    outer loop
      vertex -2.05725 -2.83156 0
      vertex -2.83156 -2.05725 0.799999
      vertex -2.83156 -2.05725 0
    endloop
  endfacet
  facet normal -0.707107 -0.707107 0
    outer loop
      vertex -2.83156 -2.05725 0.799999
      vertex -2.05725 -2.83156 0
      vertex -2.05725 -2.83156 0.799999
    endloop
  endfacet
  facet normal -0.453991 -0.891006 0
    outer loop
      vertex -2.05725 -2.83156 0
      vertex -1.08156 -3.3287 0.799999
      vertex -2.05725 -2.83156 0.799999
    endloop
  endfacet
  facet normal -0.453991 -0.891006 -0
    outer loop
      vertex -1.08156 -3.3287 0.799999
      vertex -2.05725 -2.83156 0
      vertex -1.08156 -3.3287 0
    endloop
  endfacet
  facet normal -0.707107 0.707107 0
    outer loop
      vertex 1.17557 -1.61803 0
      vertex 1.61803 -1.17557 0.799999
      vertex 1.61803 -1.17557 0
    endloop
  endfacet
  facet normal -0.707107 0.707107 0
    outer loop
      vertex 1.61803 -1.17557 0.799999
      vertex 1.17557 -1.61803 0
      vertex 1.17557 -1.61803 0.799999
    endloop
  endfacet
  facet normal -0.891006 -0.453991 0
    outer loop
      vertex 1.90211 0.618033 0
      vertex 1.61803 1.17557 0.799999
      vertex 1.61803 1.17557 0
    endloop
  endfacet
  facet normal -0.891006 -0.453991 0
    outer loop
      vertex 1.61803 1.17557 0.799999
      vertex 1.90211 0.618033 0
      vertex 1.90211 0.618033 0.799999
    endloop
  endfacet
  facet normal -0.987688 -0.156439 0
    outer loop
      vertex 2 0 0
      vertex 1.90211 0.618033 0.799999
      vertex 1.90211 0.618033 0
    endloop
  endfacet
  facet normal -0.987688 -0.156439 0
    outer loop
      vertex 1.90211 0.618033 0.799999
      vertex 2 0 0
      vertex 2 0 0.799999
    endloop
  endfacet
  facet normal -0.707107 -0.707107 0
    outer loop
      vertex 1.61803 1.17557 0
      vertex 1.17557 1.61803 0.799999
      vertex 1.17557 1.61803 0
    endloop
  endfacet
  facet normal -0.707107 -0.707107 0
    outer loop
      vertex 1.17557 1.61803 0.799999
      vertex 1.61803 1.17557 0
      vertex 1.61803 1.17557 0.799999
    endloop
  endfacet
  facet normal -0.987688 0.156439 0
    outer loop
      vertex 1.90211 -0.618033 0
      vertex 2 0 0.799999
      vertex 2 0 0
    endloop
  endfacet
  facet normal -0.987688 0.156439 0
    outer loop
      vertex 2 0 0.799999
      vertex 1.90211 -0.618033 0
      vertex 1.90211 -0.618033 0.799999
    endloop
  endfacet
  facet normal -0.156439 0.987688 0
    outer loop
      vertex 0.618033 -1.90211 0
      vertex 0 -2 0.799999
      vertex 0.618033 -1.90211 0.799999
    endloop
  endfacet
  facet normal -0.156439 0.987688 0
    outer loop
      vertex 0 -2 0.799999
      vertex 0.618033 -1.90211 0
      vertex 0 -2 0
    endloop
  endfacet
  facet normal 0.453991 -0.891006 0
    outer loop
      vertex -1.17557 1.61803 0
      vertex -0.618033 1.90211 0.799999
      vertex -1.17557 1.61803 0.799999
    endloop
  endfacet
  facet normal 0.453991 -0.891006 0
    outer loop
      vertex -0.618033 1.90211 0.799999
      vertex -1.17557 1.61803 0
      vertex -0.618033 1.90211 0
    endloop
  endfacet
  facet normal -0.453991 0.891006 0
    outer loop
      vertex 1.17557 -1.61803 0
      vertex 0.618033 -1.90211 0.799999
      vertex 1.17557 -1.61803 0.799999
    endloop
  endfacet
  facet normal -0.453991 0.891006 0
    outer loop
      vertex 0.618033 -1.90211 0.799999
      vertex 1.17557 -1.61803 0
      vertex 0.618033 -1.90211 0
    endloop
  endfacet
  facet normal 0.891006 -0.453991 0
    outer loop
      vertex -1.90211 0.618033 0.799999
      vertex -1.61803 1.17557 0
      vertex -1.61803 1.17557 0.799999
    endloop
  endfacet
  facet normal 0.891006 -0.453991 0
    outer loop
      vertex -1.61803 1.17557 0
      vertex -1.90211 0.618033 0.799999
      vertex -1.90211 0.618033 0
    endloop
  endfacet
  facet normal -0.891006 0.453991 0
    outer loop
      vertex 1.61803 -1.17557 0
      vertex 1.90211 -0.618033 0.799999
      vertex 1.90211 -0.618033 0
    endloop
  endfacet
  facet normal -0.891006 0.453991 0
    outer loop
      vertex 1.90211 -0.618033 0.799999
      vertex 1.61803 -1.17557 0
      vertex 1.61803 -1.17557 0.799999
    endloop
  endfacet
  facet normal 0.987688 -0.156439 0
    outer loop
      vertex -2 0 0.799999
      vertex -1.90211 0.618033 0
      vertex -1.90211 0.618033 0.799999
    endloop
  endfacet
  facet normal 0.987688 -0.156439 0
    outer loop
      vertex -1.90211 0.618033 0
      vertex -2 0 0.799999
      vertex -2 0 0
    endloop
  endfacet
  facet normal 0.156439 0.987688 -0
    outer loop
      vertex 0 -2 0
      vertex -0.618033 -1.90211 0.799999
      vertex 0 -2 0.799999
    endloop
  endfacet
  facet normal 0.156439 0.987688 0
    outer loop
      vertex -0.618033 -1.90211 0.799999
      vertex 0 -2 0
      vertex -0.618033 -1.90211 0
    endloop
  endfacet
  facet normal -0.156439 -0.987688 0
    outer loop
      vertex 0 2 0
      vertex 0.618033 1.90211 0.799999
      vertex 0 2 0.799999
    endloop
  endfacet
  facet normal -0.156439 -0.987688 -0
    outer loop
      vertex 0.618033 1.90211 0.799999
      vertex 0 2 0
      vertex 0.618033 1.90211 0
    endloop
  endfacet
  facet normal -0.453991 -0.891006 0
    outer loop
      vertex 0.618033 1.90211 0
      vertex 1.17557 1.61803 0.799999
      vertex 0.618033 1.90211 0.799999
    endloop
  endfacet
  facet normal -0.453991 -0.891006 -0
    outer loop
      vertex 1.17557 1.61803 0.799999
      vertex 0.618033 1.90211 0
      vertex 1.17557 1.61803 0
    endloop
  endfacet
  facet normal 0.891006 0.453991 0
    outer loop
      vertex -1.61803 -1.17557 0.799999
      vertex -1.90211 -0.618033 0
      vertex -1.90211 -0.618033 0.799999
    endloop
  endfacet
  facet normal 0.891006 0.453991 0
    outer loop
      vertex -1.90211 -0.618033 0
      vertex -1.61803 -1.17557 0.799999
      vertex -1.61803 -1.17557 0
    endloop
  endfacet
  facet normal 0.156439 -0.987688 0
    outer loop
      vertex -0.618033 1.90211 0
      vertex 0 2 0.799999
      vertex -0.618033 1.90211 0.799999
    endloop
  endfacet
  facet normal 0.156439 -0.987688 0
    outer loop
      vertex 0 2 0.799999
      vertex -0.618033 1.90211 0
      vertex 0 2 0
    endloop
  endfacet
  facet normal 0.707107 0.707107 0
    outer loop
      vertex -1.17557 -1.61803 0.799999
      vertex -1.61803 -1.17557 0
      vertex -1.61803 -1.17557 0.799999
    endloop
  endfacet
  facet normal 0.707107 0.707107 0
    outer loop
      vertex -1.61803 -1.17557 0
      vertex -1.17557 -1.61803 0.799999
      vertex -1.17557 -1.61803 0
    endloop
  endfacet
  facet normal 0.987688 0.156439 0
    outer loop
      vertex -1.90211 -0.618033 0.799999
      vertex -2 0 0
      vertex -2 0 0.799999
    endloop
  endfacet
  facet normal 0.987688 0.156439 0
    outer loop
      vertex -2 0 0
      vertex -1.90211 -0.618033 0.799999
      vertex -1.90211 -0.618033 0
    endloop
  endfacet
  facet normal 0.453991 0.891006 -0
    outer loop
      vertex -0.618033 -1.90211 0
      vertex -1.17557 -1.61803 0.799999
      vertex -0.618033 -1.90211 0.799999
    endloop
  endfacet
  facet normal 0.453991 0.891006 0
    outer loop
      vertex -1.17557 -1.61803 0.799999
      vertex -0.618033 -1.90211 0
      vertex -1.17557 -1.61803 0
    endloop
  endfacet
  facet normal 0.707107 -0.707107 0
    outer loop
      vertex -1.61803 1.17557 0.799999
      vertex -1.17557 1.61803 0
      vertex -1.17557 1.61803 0.799999
    endloop
  endfacet
  facet normal 0.707107 -0.707107 0
    outer loop
      vertex -1.17557 1.61803 0
      vertex -1.61803 1.17557 0.799999
      vertex -1.61803 1.17557 0
    endloop
  endfacet
endsolid OpenSCAD_Model
